<svg width="17" height="17" viewBox="0 0 17 17" fill="none" xmlns="http://www.w3.org/2000/svg">
<circle cx="11.4308" cy="5.14158" r="0.919042" fill="#363C45"/>
<path d="M16.5835 5.82672C16.2397 4.95142 15.6094 3.68848 14.5584 2.64252C13.5112 1.60016 12.2616 0.987826 11.3978 0.657647C10.4494 0.295184 9.37176 0.523651 8.65237 1.23966L6.12443 3.75575C5.37507 4.50157 5.1591 5.64918 5.58696 6.61142C5.71964 6.90986 5.86394 7.20177 6.01811 7.4838L0.469804 13.0321C0.349069 13.1528 0.28125 13.3165 0.28125 13.4873V16.3198C0.28125 16.6753 0.569456 16.9635 0.924999 16.9635H3.75749C4.11304 16.9635 4.40124 16.6753 4.40124 16.3198V15.161L5.55999 15.161C5.91553 15.161 6.20374 14.8728 6.20374 14.5173V13.3586H7.36249C7.71803 13.3586 8.00624 13.0703 8.00624 12.7148C8.00624 12.3593 7.71803 12.0711 7.36249 12.0711H5.55999C5.20445 12.0711 4.91624 12.3593 4.91624 12.7148V13.8735L3.75749 13.8736C3.40195 13.8736 3.11374 14.1618 3.11374 14.5173V15.676H1.56875V13.7539L7.27735 8.04537C7.48709 7.83564 7.52639 7.5098 7.37256 7.25623C7.14947 6.88852 6.94453 6.49558 6.76348 6.08831C6.55107 5.61062 6.65929 5.03997 7.03276 4.66823L9.56066 2.15217C9.92158 1.79299 10.4623 1.67844 10.9382 1.8603C11.6857 2.14599 12.7629 2.67187 13.6502 3.55503C14.5429 4.44353 15.0864 5.53672 15.3851 6.2973C15.5715 6.772 15.4582 7.31131 15.0966 7.67129L12.5381 10.2178C12.1655 10.5885 11.6095 10.6969 11.1213 10.4939C10.7188 10.3265 10.3289 10.1276 9.96259 9.90275C9.65961 9.71677 9.26319 9.81166 9.07721 10.1147C8.89123 10.4177 8.98609 10.8141 9.2891 11.0001C9.71243 11.2599 10.1625 11.4896 10.6269 11.6827C11.5971 12.0863 12.7038 11.8694 13.4463 11.1303L16.0048 8.58387C16.7305 7.86162 16.9576 6.77937 16.5835 5.82672Z" fill="#363C45"/>
</svg>
