<svg width="18" height="17" viewBox="0 0 18 17" fill="none" xmlns="http://www.w3.org/2000/svg">
<path d="M12.2521 1.52024V0.5H11.0278V1.52024H6.87884V0.5H5.65455V1.52024H0.28125V16.2118H13.1858L17.6254 11.7722V1.52024H12.2521ZM5.65455 2.74454V3.76478H6.87884V2.74454H11.0279V3.56073H12.2521V2.74454H16.4011V4.78503H1.50554V2.74454H5.65455ZM1.50554 6.00932H16.4011V10.9065H12.3201V14.9875H1.50554V6.00932ZM15.5354 12.1308L13.5444 14.1218V12.1308H15.5354Z" fill="#363C45" stroke="#FAFAFB" stroke-width="0.2"/>
<rect x="4.25977" y="11.3146" width="2.04049" height="2.04049" fill="#363C45" stroke="#FAFAFB" stroke-width="0.2"/>
<rect x="7.93359" y="11.3146" width="2.04049" height="2.04049" fill="#363C45" stroke="#FAFAFB" stroke-width="0.2"/>
<rect x="7.93359" y="7.64172" width="2.04049" height="2.04049" fill="#363C45" stroke="#FAFAFB" stroke-width="0.2"/>
<rect x="11.6055" y="7.64172" width="2.04049" height="2.04049" fill="#363C45" stroke="#FAFAFB" stroke-width="0.2"/>
<rect x="4.25977" y="7.64172" width="2.04049" height="2.04049" fill="#363C45" stroke="#FAFAFB" stroke-width="0.2"/>
</svg>
