<svg width="12" height="10" viewBox="0 0 12 10" fill="none" xmlns="http://www.w3.org/2000/svg">
<path d="M9.8166 4.3364V1.75877C9.81604 1.28448 9.43169 0.900127 8.95739 0.899567H2.94294C2.46865 0.900127 2.08429 1.28448 2.08373 1.75877V4.3364C1.37229 4.33722 0.795751 4.91376 0.794922 5.62521L0.794922 9.06203C0.794922 9.22041 0.882109 9.36598 1.02178 9.44074C1.16149 9.51551 1.33097 9.50733 1.46279 9.41947L2.08373 9.00554V9.49163H2.94294V8.63243H8.95739V9.49163H9.8166V9.00554L10.4375 9.41947C10.5693 9.50736 10.7388 9.51556 10.8785 9.44081C11.0182 9.36605 11.1054 9.22047 11.1054 9.06203V5.62521C11.1046 4.91376 10.528 4.33722 9.8166 4.3364ZM2.94294 1.75877H8.95739V4.3364H8.09818V3.04758C8.09762 2.57329 7.71327 2.18894 7.23898 2.18837H4.66136C4.18706 2.18894 3.80271 2.57329 3.80215 3.04758V4.3364H2.94294V1.75877ZM7.23898 4.3364H4.66136V3.04758H7.23898V4.3364ZM10.2462 8.25932L9.62527 7.8454C9.55472 7.79832 9.4718 7.77321 9.387 7.77322H2.51334C2.42852 7.77322 2.3456 7.79834 2.27502 7.84539L1.65413 8.25932V5.62521C1.6544 5.38805 1.84658 5.19587 2.08373 5.1956H9.8166C10.0538 5.19587 10.2459 5.38805 10.2462 5.62521V8.25932Z" fill="#363C45" stroke="white" stroke-width="0.1"/>
</svg>
