<svg width="18" height="19" viewBox="0 0 18 19" fill="none" xmlns="http://www.w3.org/2000/svg">
<path d="M17.2813 0H0.28125V10.7959H2.38125V12.842C2.38125 15.2571 3.59269 17.7158 3.64425 17.8193L3.80989 18.1517H13.7526L13.9183 17.8193C13.9699 17.7158 15.1812 15.2571 15.1812 12.842V10.7959H17.2813V0ZM16.0812 3.1858C15.0984 2.95776 14.3235 2.18284 14.0955 1.2H16.0812V3.1858ZM12.873 9.59592H5.90125V8.10092C5.90125 7.13044 5.11173 6.34092 4.14125 6.34092C3.63941 6.34092 3.18629 6.5524 2.86537 6.89048C2.44105 6.63564 1.97109 6.4658 1.48125 6.38876V4.40824C3.12737 4.14988 4.43113 2.84612 4.68949 1.2H12.873C13.1314 2.84612 14.4351 4.14988 16.0812 4.40824V6.38772C14.4351 6.64604 13.1314 7.9498 12.873 9.59592ZM3.46705 1.2C3.23901 2.18284 2.46409 2.95776 1.48125 3.1858V1.2H3.46705ZM1.48125 9.59592V7.60952C1.80373 7.6842 2.10973 7.8192 2.38377 8.00748C2.38213 8.03844 2.38125 8.06956 2.38125 8.10092V9.59592H1.48125ZM4.56685 16.9517C4.25717 16.2379 3.58125 14.4908 3.58125 12.842V8.10092C3.58125 7.79212 3.83245 7.54092 4.14125 7.54092C4.45005 7.54092 4.70125 7.79212 4.70125 8.10092V13.5959H5.30125C7.27849 13.5959 8.92161 15.0542 9.21157 16.9517H4.56685ZM13.9813 12.842C13.9813 14.491 13.3053 16.2382 12.9956 16.9517H10.4223C10.1471 14.5871 8.26581 12.7058 5.90125 12.4306V10.7959H13.9813V12.842ZM14.0955 9.59592C14.3235 8.61308 15.0984 7.83816 16.0812 7.61012V9.59592H14.0955Z" fill="#363C45"/>
<path d="M8.78105 2.698C7.29227 2.698 6.08105 3.90919 6.08105 5.398C6.08105 6.8868 7.29227 8.098 8.78105 8.098C10.2699 8.098 11.4811 6.8868 11.4811 5.398C11.4811 3.9092 10.2699 2.698 8.78105 2.698ZM8.78105 6.898C7.95393 6.898 7.28105 6.22512 7.28105 5.398C7.28105 4.57088 7.95393 3.898 8.78105 3.898C9.60818 3.898 10.2811 4.57088 10.2811 5.398C10.2811 6.22512 9.60818 6.898 8.78105 6.898Z" fill="#363C45"/>
</svg>
