<svg width="9" height="10" viewBox="0 0 9 10" fill="none" xmlns="http://www.w3.org/2000/svg">
<path d="M6.17733 2.71289H0.430982C0.192911 2.71289 0 2.90579 0 3.14386V8.89017C0 9.12827 0.192911 9.32114 0.430982 9.32114H6.17733C6.4154 9.32114 6.6083 9.12827 6.6083 8.89017V3.14386C6.6083 2.90579 6.4154 2.71289 6.17733 2.71289ZM5.74635 8.4592H0.861949V3.5748H5.74635V8.4592Z" fill="#363C45"/>
<path d="M8.58077 7.92918H8.11334V2.89942H8.58077C8.61529 2.89942 8.64645 2.87865 8.65963 2.84669C8.67297 2.81472 8.66567 2.77807 8.64111 2.75356L7.8865 1.99894C7.85308 1.96552 7.79894 1.96552 7.76559 1.99894L7.01092 2.75356C6.98638 2.7781 6.97909 2.81472 6.99242 2.84669C7.00561 2.87865 7.03677 2.89942 7.07128 2.89942H7.53869V7.92918H7.07128C7.03674 7.92918 7.00561 7.94993 6.99242 7.9819C6.97912 8.01391 6.98638 8.05054 7.01092 8.07508L7.76559 8.82972C7.79894 8.86311 7.85311 8.86311 7.8865 8.82972L8.64111 8.07508C8.6657 8.05054 8.67297 8.01392 8.65963 7.9819C8.64645 7.94993 8.61532 7.92918 8.58077 7.92918Z" fill="#363C45"/>
<path d="M1.24597 2.33413C1.27051 2.35867 1.30713 2.36597 1.33913 2.35264C1.37111 2.33947 1.39188 2.30832 1.39188 2.27379V1.80636H6.42162V2.27379C6.42162 2.30832 6.44238 2.33947 6.47437 2.35264C6.50633 2.36597 6.54297 2.35867 6.56752 2.33413L7.32215 1.5795C7.35555 1.54609 7.35555 1.49193 7.32215 1.45855L6.56752 0.703938C6.54297 0.679379 6.50637 0.672086 6.47437 0.685407C6.44238 0.698598 6.42162 0.729741 6.42162 0.764256V1.23174H1.39188V0.764256C1.39188 0.729756 1.37113 0.698598 1.33913 0.685407C1.30714 0.672086 1.27051 0.679379 1.24597 0.703938L0.491357 1.45855C0.457959 1.49193 0.457959 1.54609 0.491357 1.5795L1.24597 2.33413Z" fill="#363C45"/>
</svg>
