<svg width="27" height="28" viewBox="0 0 27 28" fill="none" xmlns="http://www.w3.org/2000/svg">
<path d="M25.718 14.2201C25.6064 13.9918 25.6064 13.7301 25.718 13.5019L26.7519 11.3868C27.3276 10.2091 26.8715 8.80545 25.7135 8.19108L23.6339 7.08763C23.4095 6.96863 23.2557 6.75682 23.2118 6.50672L22.805 4.1878C22.5786 2.89669 21.3843 2.02909 20.0866 2.21269L17.7555 2.54242C17.5039 2.57794 17.2551 2.49705 17.0726 2.32049L15.3806 0.683613C14.4384 -0.227844 12.9625 -0.227898 12.0204 0.683613L10.3283 2.32065C10.1457 2.49727 9.89689 2.578 9.64534 2.54259L7.31428 2.21285C6.01619 2.02914 4.82232 2.89685 4.59583 4.18796L4.1891 6.50678C4.14519 6.75692 3.99137 6.96868 3.76705 7.08774L1.68739 8.19119C0.529469 8.80551 0.0733621 10.2093 0.649019 11.387L1.6829 13.5021C1.79443 13.7303 1.79443 13.992 1.6829 14.2202L0.648966 16.3352C0.0733078 17.5129 0.529416 18.9166 1.68733 19.531L3.767 20.6344C3.99137 20.7534 4.14519 20.9652 4.1891 21.2153L4.59583 23.5342C4.80201 24.7096 5.80984 25.5339 6.96814 25.5338C7.08222 25.5338 7.19798 25.5258 7.31434 25.5093L9.64539 25.1796C9.89678 25.1439 10.1457 25.2249 10.3283 25.4015L12.0204 27.0384C12.4915 27.4942 13.0959 27.722 13.7004 27.7219C14.3048 27.7219 14.9096 27.4941 15.3805 27.0384L17.0726 25.4015C17.2552 25.2249 17.504 25.1443 17.7555 25.1796L20.0866 25.5093C21.3849 25.693 22.5786 24.8253 22.805 23.5342L23.2118 21.2154C23.2557 20.9652 23.4096 20.7535 23.6339 20.6344L25.7135 19.531C26.8715 18.9166 27.3276 17.5129 26.7519 16.3352L25.718 14.2201ZM24.9641 18.1185L22.8845 19.222C22.2214 19.5738 21.7667 20.1996 21.637 20.939L21.2303 23.2579C21.1537 23.6947 20.7498 23.9881 20.3105 23.9261L17.9795 23.5964C17.2361 23.4911 16.5005 23.7304 15.9609 24.2522L14.2688 25.8891C13.9501 26.1974 13.4508 26.1974 13.132 25.8891L11.4399 24.2522C10.9839 23.8111 10.3878 23.572 9.76549 23.572C9.65146 23.572 9.53651 23.5801 9.4214 23.5963L7.09035 23.9261C6.65146 23.9881 6.24728 23.6947 6.17061 23.2578L5.76382 20.9389C5.6341 20.1995 5.1794 19.5737 4.5163 19.2219L2.43663 18.1185C2.04485 17.9106 1.89054 17.4357 2.08529 17.0373L3.11923 14.9221C3.44885 14.2477 3.44885 13.4742 3.11923 12.7998L2.08529 10.6847C1.89054 10.2862 2.04485 9.81134 2.43663 9.60348L4.5163 8.50003C5.17934 8.14815 5.6341 7.52235 5.76377 6.78297L6.1705 4.4641C6.24717 4.02726 6.65097 3.7338 7.09024 3.79585L9.4213 4.12559C10.1644 4.23079 10.9003 3.99164 11.4398 3.46974L13.1319 1.83287C13.4506 1.52457 13.95 1.52457 14.2688 1.83287L15.9608 3.46974C16.5004 3.99169 17.2361 4.23079 17.9794 4.12559L20.3104 3.79585C20.7494 3.73375 21.1536 4.02726 21.2302 4.4641L21.6369 6.78302C21.7666 7.52241 22.2213 8.14826 22.8844 8.50003L24.9641 9.60348C25.3559 9.81134 25.5102 10.2862 25.3154 10.6847L24.2815 12.7998C23.9519 13.4741 23.9519 14.2477 24.2815 14.9221L25.3154 17.0372C25.5102 17.4357 25.3559 17.9107 24.9641 18.1185Z" fill="#C39E35"/>
<path d="M19.5418 8.01967C19.2296 7.70747 18.7234 7.70747 18.4112 8.01967L7.85915 18.5718C7.54695 18.884 7.54695 19.3902 7.85915 19.7023C8.01527 19.8584 8.21986 19.9365 8.42442 19.9365C8.62898 19.9365 8.83363 19.8585 8.98967 19.7023L19.5417 9.15031C19.854 8.83806 19.854 8.33192 19.5418 8.01967Z" fill="#C39E35"/>
<path d="M10.5026 6.66602C8.88626 6.66602 7.57129 7.981 7.57129 9.59731C7.57129 11.2136 8.88626 12.5286 10.5026 12.5286C12.1189 12.5286 13.4339 11.2136 13.4339 9.59731C13.4339 7.981 12.1189 6.66602 10.5026 6.66602ZM10.5026 10.9297C9.7679 10.9297 9.17021 10.332 9.17021 9.59724C9.17021 8.86256 9.7679 8.26488 10.5026 8.26488C11.2373 8.26488 11.835 8.86256 11.835 9.59724C11.8349 10.332 11.2373 10.9297 10.5026 10.9297Z" fill="#C39E35"/>
<path d="M16.8981 15.1934C15.2818 15.1934 13.9668 16.5084 13.9668 18.1247C13.9668 19.741 15.2818 21.056 16.8981 21.056C18.5144 21.056 19.8293 19.741 19.8293 18.1247C19.8293 16.5084 18.5144 15.1934 16.8981 15.1934ZM16.8981 19.457C16.1634 19.457 15.5656 18.8594 15.5656 18.1247C15.5656 17.39 16.1634 16.7923 16.8981 16.7923C17.6328 16.7923 18.2305 17.39 18.2305 18.1247C18.2305 18.8594 17.6328 19.457 16.8981 19.457Z" fill="#C39E35"/>
</svg>
