<svg width="24" height="24" viewBox="0 0 24 24" fill="none" xmlns="http://www.w3.org/2000/svg">
<path d="M12 14.5001C11.9014 14.5006 11.8038 14.4813 11.7128 14.4436C11.6218 14.4058 11.5392 14.3502 11.47 14.2801L7.99997 10.7801C7.90858 10.6391 7.86716 10.4716 7.88234 10.3043C7.89753 10.137 7.96845 9.9796 8.08373 9.85741C8.19901 9.73521 8.35197 9.65525 8.51811 9.63036C8.68425 9.60546 8.85393 9.63705 8.99997 9.72009L12 12.7201L15 9.72009C15.146 9.63705 15.3157 9.60546 15.4818 9.63036C15.648 9.65525 15.8009 9.73521 15.9162 9.85741C16.0315 9.9796 16.1024 10.137 16.1176 10.3043C16.1328 10.4716 16.0914 10.6391 16 10.7801L12.5 14.2801C12.3675 14.4145 12.1886 14.4932 12 14.5001Z" fill="#191A1C"/>
</svg>
