<svg width="24" height="24" viewBox="0 0 24 24" fill="none" xmlns="http://www.w3.org/2000/svg">
<path d="M20.86 8.37009L13.93 2.83009C12.86 1.97009 11.13 1.97009 10.07 2.82009L3.13999 8.37009C2.35999 8.99009 1.85999 10.3001 2.02999 11.2801L3.35999 19.2401C3.59999 20.6601 4.95999 21.8101 6.39999 21.8101H17.6C19.03 21.8101 20.4 20.6501 20.64 19.2401L21.97 11.2801C22.13 10.3001 21.63 8.99009 20.86 8.37009ZM12 15.5001C11.3369 15.5001 10.7011 15.2367 10.2322 14.7679C9.76338 14.299 9.49999 13.6631 9.49999 13.0001C9.49999 12.3371 9.76338 11.7012 10.2322 11.2323C10.7011 10.7635 11.3369 10.5001 12 10.5001C12.663 10.5001 13.2989 10.7635 13.7678 11.2323C14.2366 11.7012 14.5 12.3371 14.5 13.0001C14.5 13.6631 14.2366 14.299 13.7678 14.7679C13.2989 15.2367 12.663 15.5001 12 15.5001Z" fill="#ABABAB"/>
</svg>
