<svg width="11" height="10" viewBox="0 0 11 10" fill="none" xmlns="http://www.w3.org/2000/svg">
<path d="M10.2237 4.42362C10.2131 4.34599 10.1721 4.27572 10.1097 4.22827L5.36772 0.622041C5.26203 0.541677 5.1157 0.541677 5.01001 0.622041L0.267981 4.22827C0.205602 4.2757 0.164633 4.34599 0.154066 4.42362C0.143499 4.50127 0.16422 4.57994 0.211643 4.64231L1.05525 5.75161C1.10267 5.81396 1.17296 5.85495 1.25061 5.86552C1.32824 5.87613 1.40693 5.85537 1.46929 5.80792L1.5685 5.73246V9.53374C1.5685 9.69691 1.70079 9.8292 1.86396 9.8292H8.51367C8.67684 9.8292 8.80913 9.69691 8.80913 9.53374V5.73238L8.90847 5.80792C8.96018 5.84726 9.02307 5.86822 9.08731 5.86822C9.10056 5.86822 9.11386 5.86733 9.12714 5.86552C9.20479 5.85497 9.27506 5.81396 9.3225 5.75161L10.1661 4.64231C10.2135 4.57991 10.2342 4.50128 10.2237 4.42362ZM2.15938 9.23828V5.2831L2.81613 4.78364L5.18883 2.97923L7.74215 4.92093L8.21821 5.28296V9.23824L2.15938 9.23828ZM9.03098 5.15874L5.36772 2.37288C5.31486 2.3327 5.23194 2.31259 5.18887 2.31259C5.14577 2.31259 5.05618 2.3377 5.00996 2.37288L1.34675 5.15874L0.86085 4.51976L5.18887 1.22841L9.51688 4.51978L9.03098 5.15874Z" fill="#363C45"/>
</svg>
