<svg width="10" height="10" viewBox="0 0 10 10" fill="none" xmlns="http://www.w3.org/2000/svg">
<path d="M9.91241 7.12556L7.88474 5.11616C8.20125 4.22444 7.87204 3.2157 7.0502 2.69824V1.46515C7.0502 1.38746 7.01932 1.31293 6.96438 1.258L5.79261 0.0862207C5.73765 0.031284 5.66315 0.000427246 5.58546 0.000427246H0.292944C0.131161 0.000427246 0 0.131588 0 0.293371V4.43364C0 4.59543 0.131161 4.72659 0.292944 4.72659H2.38442C2.48287 5.39829 2.91493 5.98421 3.53485 6.27901V6.65585L3.03478 7.15593C2.92037 7.27033 2.92037 7.4558 3.03478 7.57021L3.41352 7.94897L3.03478 8.3277C2.92037 8.44211 2.92037 8.62758 3.03478 8.74198L4.20655 9.91376C4.32094 10.0281 4.50643 10.0282 4.62083 9.91376L5.20672 9.32787C5.26164 9.27295 5.29252 9.19843 5.29252 9.12074V6.37146C5.72666 6.51743 6.20617 6.51372 6.64138 6.35979L6.90802 6.62642V7.33365C6.90802 7.49543 7.03918 7.62659 7.20097 7.62659H7.73658V8.16223C7.73658 8.32401 7.86774 8.45517 8.02953 8.45517H9.7062C9.86798 8.45517 9.99914 8.32401 9.99914 8.16223V7.33365C9.99914 7.25549 9.96792 7.18057 9.91241 7.12556ZM0.585887 0.586314H5.46412L6.46429 1.58648V2.44657C6.04698 2.34023 5.59878 2.36571 5.18549 2.53394C5.034 2.47217 4.87353 2.42801 4.70663 2.40403V1.79715H4.99957C5.16136 1.79715 5.29252 1.66599 5.29252 1.5042C5.29252 1.34242 5.16136 1.21126 4.99957 1.21126H3.8278C3.66601 1.21126 3.53485 1.34242 3.53485 1.5042C3.53485 1.66599 3.66601 1.79715 3.8278 1.79715H4.12074V2.40405C3.22402 2.53289 2.51293 3.24398 2.38409 4.1407H0.585887V0.586314ZM4.70663 6.08368V8.9994L4.41368 9.29235L3.65619 8.53485L4.03493 8.15612C4.14933 8.04171 4.14933 7.85624 4.03493 7.74184L3.65619 7.36308L4.03493 6.98434C4.08986 6.9294 4.12074 6.85488 4.12074 6.77719V6.08368C4.12074 5.95972 4.04272 5.84916 3.92591 5.80765C3.34161 5.59993 2.94902 5.04783 2.94897 4.43378C2.94902 3.72648 3.45302 3.1345 4.12074 2.99841V3.84775C4.12074 4.00954 4.2519 4.1407 4.41368 4.1407C4.57547 4.1407 4.70663 4.00954 4.70663 3.84775V2.99839C5.37438 3.13448 5.8784 3.72628 5.8784 4.43364C5.8784 5.04775 5.4858 5.59993 4.90146 5.80765C4.78465 5.84916 4.70663 5.9597 4.70663 6.08368ZM9.41326 7.86927H8.32247V7.33363C8.32247 7.17185 8.19131 7.04068 8.02953 7.04068H7.49391V6.50507C7.49391 6.42738 7.46303 6.35287 7.4081 6.29792L6.91771 5.80753C6.83006 5.71986 6.69671 5.69687 6.58479 5.75011C6.35418 5.85975 6.09944 5.90607 5.8495 5.8894C6.23376 5.51242 6.46429 4.99147 6.46429 4.43364C6.46429 3.86226 6.22929 3.34481 5.851 2.9726C6.96942 2.89135 7.75801 4.04362 7.27457 5.06031C7.22114 5.1727 7.24454 5.30658 7.33293 5.39418L9.41326 7.45575V7.86927Z" fill="#363C45"/>
</svg>
