<svg width="25" height="25" viewBox="0 0 25 25" fill="none" xmlns="http://www.w3.org/2000/svg">
<path d="M22.9031 19.5103C22.8551 19.8288 22.7339 20.1319 22.5489 20.3957C22.3649 20.6549 22.1212 20.8659 21.8383 21.011C21.5555 21.156 21.2418 21.2308 20.9239 21.229H19.2042C19.0818 21.2286 18.9613 21.1992 18.8527 21.143C18.744 21.0869 18.6502 21.0057 18.5792 20.9061C18.5073 20.8066 18.4595 20.6918 18.4396 20.5707C18.4197 20.4495 18.4283 20.3254 18.4646 20.2082C18.85 18.979 18.7667 17.5936 15.276 15.3749C15.1338 15.2817 15.0248 15.1457 14.9649 14.9865C14.905 14.8274 14.8972 14.6533 14.9427 14.4894C14.9915 14.328 15.0906 14.1864 15.2255 14.0852C15.3604 13.9841 15.5241 13.9286 15.6927 13.9269C17.1826 13.9472 18.6366 14.387 19.8879 15.1958C21.1393 16.0046 22.1374 17.1497 22.7677 18.4999C22.8958 18.8202 22.9423 19.1674 22.9031 19.5103ZM20.2979 8.02068C20.2952 9.24112 19.809 10.4108 18.946 11.2737C18.0829 12.1365 16.9131 12.6224 15.6927 12.6249C15.556 12.6224 15.4222 12.5845 15.3045 12.515C15.1867 12.4454 15.089 12.3466 15.0208 12.2281C14.9526 12.1095 14.9163 11.9753 14.9154 11.8386C14.9145 11.7019 14.949 11.5672 15.0156 11.4478C15.6531 10.4279 15.9911 9.24942 15.9911 8.04673C15.9911 6.84403 15.6531 5.66554 15.0156 4.64569C14.9339 4.52893 14.8857 4.39204 14.8762 4.24985C14.8667 4.10766 14.8963 3.96558 14.9617 3.83899C15.0271 3.7124 15.126 3.60612 15.2475 3.53165C15.369 3.45718 15.5085 3.41737 15.651 3.41652C16.2609 3.41497 16.8646 3.53797 17.4253 3.77799C17.9859 4.01801 18.4916 4.36998 18.9114 4.81235C19.7683 5.67758 20.2512 6.84464 20.2562 8.06235L20.2979 8.02068Z" fill="#ABABAB"/>
<path d="M17.3698 19.4791C17.412 19.989 17.3115 20.5006 17.0798 20.9568C16.848 21.413 16.494 21.7958 16.0573 22.0624C15.6219 22.3301 15.1198 22.4708 14.6094 22.4687H4.84585C4.33476 22.471 3.83323 22.3302 3.39793 22.0624C2.96023 21.7974 2.60586 21.4146 2.37526 20.9578C2.14466 20.5011 2.04711 19.9886 2.09376 19.4791C2.13155 18.9707 2.31209 18.4832 2.6146 18.0728C3.44513 16.9678 4.51483 16.0649 5.74363 15.4318C6.97244 14.7986 8.32853 14.4516 9.71043 14.4166C11.0971 14.4441 12.4593 14.7867 13.6941 15.4183C14.9288 16.0499 16.0037 16.9541 16.8375 18.0624C17.1407 18.4773 17.3254 18.9672 17.3698 19.4791ZM14.8386 7.62492C14.8358 8.97911 14.2972 10.2772 13.3404 11.2355C12.3837 12.1938 11.0865 12.7346 9.73231 12.7395C8.97832 12.7376 8.2341 12.5689 7.55308 12.2453C6.87206 11.9217 6.27112 11.4514 5.79343 10.868C5.31573 10.2847 4.97312 9.60278 4.7902 8.87132C4.60727 8.13986 4.58857 7.37697 4.73543 6.63742C4.88291 5.8977 5.19251 5.19985 5.64195 4.59409C6.0914 3.98832 6.66951 3.4897 7.33471 3.13409C7.99991 2.77848 8.73566 2.57473 9.48902 2.53748C10.2424 2.50023 10.9946 2.63042 11.6917 2.91867C12.6239 3.30356 13.4212 3.95597 13.9829 4.79357C14.5446 5.63117 14.8456 6.6164 14.8479 7.62492H14.8386Z" fill="#ABABAB"/>
</svg>
