<svg width="19" height="19" viewBox="0 0 19 19" fill="none" xmlns="http://www.w3.org/2000/svg">
<path d="M18.552 8.4035L9.94187 0.856948C9.70297 0.647619 9.34605 0.647619 9.1072 0.856948L0.497038 8.4035C0.234124 8.63395 0.207787 9.03396 0.438235 9.29698C0.668684 9.55984 1.06875 9.58623 1.33167 9.35573L1.99835 8.77145V18.1876C1.99835 18.5373 2.28177 18.8207 2.63144 18.8207H7.42948H11.6196H16.4176C16.7672 18.8207 17.0507 18.5373 17.0507 18.1876V8.77151L17.7174 9.35583C17.8375 9.46108 17.9863 9.51284 18.1344 9.51284C18.3104 9.51284 18.4856 9.43986 18.6107 9.29703C18.8413 9.03396 18.815 8.634 18.552 8.4035ZM8.06258 17.5545V12.3392H10.9864V17.5546L8.06258 17.5545ZM15.7846 7.66657V17.5545H12.2528V11.7061C12.2528 11.3565 11.9693 11.073 11.6197 11.073H7.42958C7.07996 11.073 6.79648 11.3565 6.79648 11.7061V17.5546H3.2646V7.66657L3.26439 7.66186L9.52454 2.17491L15.7848 7.66181L15.7846 7.66657Z" fill="#363C45" stroke="#363C45" stroke-width="0.2"/>
<path d="M8.10645 6.63217C8.10645 6.98186 8.38986 7.26527 8.73953 7.26527H10.3096C10.6593 7.26527 10.9427 6.98186 10.9427 6.63217C10.9427 6.2825 10.6593 5.99908 10.3096 5.99908H8.73953C8.38992 5.99908 8.10645 6.2825 8.10645 6.63217Z" fill="#363C45" stroke="#363C45" stroke-width="0.2"/>
</svg>
