<svg width="25" height="25" viewBox="0 0 25 25" fill="none" xmlns="http://www.w3.org/2000/svg">
<path d="M11.7188 8.17407C10.7437 8.44074 10.1562 9.1897 10.1562 9.89595C10.1562 10.6022 10.7437 11.3512 11.7188 11.6168V8.17407ZM13.2812 13.3834V16.8251C14.2562 16.5595 14.8438 15.8105 14.8438 15.1043C14.8438 14.398 14.2562 13.6491 13.2812 13.3834Z" fill="#ABABAB"/>
<path fill-rule="evenodd" clip-rule="evenodd" d="M22.9167 12.4999C22.9167 18.253 18.2531 22.9166 12.5 22.9166C6.74689 22.9166 2.08334 18.253 2.08334 12.4999C2.08334 6.74679 6.74689 2.08325 12.5 2.08325C18.2531 2.08325 22.9167 6.74679 22.9167 12.4999ZM12.5 5.46867C12.7072 5.46867 12.9059 5.55098 13.0524 5.69749C13.199 5.844 13.2813 6.04272 13.2813 6.24992V6.58013C14.9792 6.88429 16.4063 8.16034 16.4063 9.89575C16.4063 10.103 16.324 10.3017 16.1774 10.4482C16.0309 10.5947 15.8322 10.677 15.625 10.677C15.4178 10.677 15.2191 10.5947 15.0726 10.4482C14.9261 10.3017 14.8438 10.103 14.8438 9.89575C14.8438 9.1895 14.2563 8.44054 13.2813 8.17388V11.7885C14.9792 12.0926 16.4063 13.3687 16.4063 15.1041C16.4063 16.8395 14.9792 18.1155 13.2813 18.4197V18.7499C13.2813 18.9571 13.199 19.1558 13.0524 19.3023C12.9059 19.4489 12.7072 19.5312 12.5 19.5312C12.2928 19.5312 12.0941 19.4489 11.9476 19.3023C11.8011 19.1558 11.7188 18.9571 11.7188 18.7499V18.4197C10.0208 18.1155 8.59376 16.8395 8.59376 15.1041C8.59376 14.8969 8.67607 14.6982 8.82258 14.5517C8.9691 14.4051 9.16781 14.3228 9.37501 14.3228C9.58221 14.3228 9.78092 14.4051 9.92744 14.5517C10.074 14.6982 10.1563 14.8969 10.1563 15.1041C10.1563 15.8103 10.7438 16.5593 11.7188 16.8249V13.2114C10.0208 12.9072 8.59376 11.6312 8.59376 9.89575C8.59376 8.16034 10.0208 6.88429 11.7188 6.58013V6.24992C11.7188 6.04272 11.8011 5.844 11.9476 5.69749C12.0941 5.55098 12.2928 5.46867 12.5 5.46867Z" fill="#ABABAB"/>
</svg>
