<svg width="27" height="25" viewBox="0 0 27 25" fill="none" xmlns="http://www.w3.org/2000/svg">
<path d="M25.9706 9.38743C25.846 9.00088 25.6169 8.65634 25.3086 8.39196C25.0003 8.12757 24.6248 7.95365 24.2238 7.88945L17.9311 6.86678L15.0139 1.1981C14.8281 0.837226 14.5465 0.534505 14.1999 0.323157C13.8534 0.111808 13.4553 0 13.0494 0C12.6435 0 12.2455 0.111808 11.8989 0.323157C11.5524 0.534505 11.2707 0.837226 11.0849 1.1981L8.1678 6.86678L1.87516 7.88945C1.47453 7.95466 1.09961 8.12896 0.791522 8.39322C0.483436 8.65749 0.254095 9.00151 0.128661 9.38754C0.00322792 9.77357 -0.0134502 10.1867 0.0804568 10.5816C0.174364 10.9765 0.375227 11.3379 0.661008 11.6261L5.15083 16.1522L4.17903 22.4529C4.11667 22.8542 4.1662 23.2649 4.32216 23.6399C4.47813 24.0149 4.73449 24.3396 5.06305 24.5783C5.39161 24.817 5.77964 24.9605 6.18446 24.9929C6.58929 25.0254 6.99522 24.9456 7.35762 24.7623L13.0494 21.8908L18.7414 24.7623C19.1038 24.9452 19.5097 25.0247 19.9143 24.9921C20.319 24.9595 20.7069 24.816 21.0353 24.5773C21.3637 24.3387 21.6201 24.0142 21.7761 23.6394C21.9322 23.2646 21.982 22.8541 21.92 22.4529L20.9482 16.1522L25.438 11.6261C25.7247 11.3384 25.9262 10.977 26.0202 10.5819C26.1142 10.1868 26.097 9.77339 25.9706 9.38743Z" fill="#D4D4D4"/>
</svg>
