<svg width="25" height="25" viewBox="0 0 25 25" fill="none" xmlns="http://www.w3.org/2000/svg">
<g clip-path="url(#clip0_376_1181)">
<path d="M8.33334 13.3335V10.3452L10.8333 7.84521L13.3333 10.3452V13.3335H8.33334Z" fill="#ABABAB"/>
<path fill-rule="evenodd" clip-rule="evenodd" d="M0 10.8334C0.000222199 9.08719 0.422568 7.36689 1.23105 5.81909C2.03954 4.27129 3.2102 2.94187 4.6433 1.94409C6.0764 0.946319 7.72946 0.309762 9.46164 0.0886581C11.1938 -0.132446 12.9538 0.0684567 14.5916 0.674249C16.2294 1.28004 17.6964 2.27277 18.8678 3.56785C20.0392 4.86293 20.8801 6.42198 21.319 8.11216C21.7578 9.80235 21.7816 11.5736 21.3883 13.2749C20.995 14.9763 20.1962 16.5574 19.06 17.8834L24.7567 23.5768L23.5783 24.7551L17.8817 19.0601C16.3085 20.4079 14.3818 21.2764 12.3301 21.5626C10.2783 21.8488 8.18752 21.5408 6.30552 20.6749C4.42353 19.8091 2.82924 18.4218 1.71166 16.6775C0.594071 14.9332 4.72306e-05 12.905 0 10.8334ZM14.7567 9.41009L11.4233 6.07675C11.3459 5.99915 11.254 5.93758 11.1527 5.89557C11.0515 5.85356 10.9429 5.83193 10.8333 5.83193C10.7237 5.83193 10.6152 5.85356 10.5139 5.89557C10.4127 5.93758 10.3207 5.99915 10.2433 6.07675L6.91 9.41009C6.83266 9.48762 6.77137 9.57963 6.72961 9.68087C6.68786 9.78211 6.66647 9.89058 6.66667 10.0001V14.1668C6.66667 14.3878 6.75446 14.5997 6.91074 14.756C7.06702 14.9123 7.27899 15.0001 7.5 15.0001H14.1667C14.3877 15.0001 14.5996 14.9123 14.7559 14.756C14.9122 14.5997 15 14.3878 15 14.1668V10.0001C15.0002 9.89058 14.9788 9.78211 14.9371 9.68087C14.8953 9.57963 14.834 9.48762 14.7567 9.41009Z" fill="#ABABAB"/>
</g>
<defs>
<clipPath id="clip0_376_1181">
<rect width="25" height="25" fill="white"/>
</clipPath>
</defs>
</svg>
