<svg width="16" height="16" viewBox="0 0 16 16" fill="none" xmlns="http://www.w3.org/2000/svg">
<path fill-rule="evenodd" clip-rule="evenodd" d="M12.1497 7.76883C12.1497 8.23132 12.5332 8.61485 12.9957 8.61485C13.4582 8.61485 13.8417 8.23132 13.8417 7.76883V5.51277C13.8417 5.05028 13.4582 4.66675 12.9957 4.66675H10.7396C10.2771 4.66675 9.89361 5.05028 9.89361 5.51277C9.89361 5.97526 10.2771 6.35879 10.7396 6.35879H10.9438L8.38205 8.92055L7.1525 7.07058C7.08381 6.96609 6.99254 6.87834 6.88543 6.81379C6.77833 6.74925 6.6581 6.70957 6.53362 6.69766C6.40913 6.68575 6.28357 6.70193 6.16616 6.74499C6.04876 6.78806 5.94252 6.85692 5.85526 6.9465L2.24557 10.5562C2.08824 10.7154 2 10.9302 2 11.154C2 11.3779 2.08824 11.5927 2.24557 11.7519C2.41478 11.9211 2.6291 12.0001 2.84343 12.0001C3.05775 12.0001 3.27208 11.9211 3.44128 11.7519L6.31776 8.87543L7.54731 10.7254C7.616 10.8299 7.70726 10.9176 7.81437 10.9822C7.92148 11.0467 8.0417 11.0864 8.16619 11.0983C8.29067 11.1102 8.41624 11.094 8.53364 11.051C8.65104 11.0079 8.75728 10.9391 8.84454 10.8495L12.1497 7.54436V7.76883Z" fill="#FF4D4D"/>
</svg>
